<?xml version="1.0" encoding="UTF-8"?>
<svg xmlns="http://www.w3.org/2000/svg" xmlns:xlink="http://www.w3.org/1999/xlink" width="386px" height="128px" viewBox="0 0 386 128" version="1.1">
<defs>
<linearGradient id="linear0" gradientUnits="userSpaceOnUse" x1="1538.390137" y1="468.442505" x2="1821" y2="468.442505" gradientTransform="matrix(0.224158,0,0,0.224168,-22.191638,-57.179681)">
<stop offset="0" style="stop-color:rgb(11.372549%,66.666667%,98.431373%);stop-opacity:1;"/>
<stop offset="1" style="stop-color:rgb(6.27451%,42.352941%,78.823529%);stop-opacity:1;"/>
</linearGradient>
<linearGradient id="linear1" gradientUnits="userSpaceOnUse" x1="1377.69043" y1="374.239197" x2="1660.300293" y2="374.239197" gradientTransform="matrix(0.224158,0,0,0.224168,-22.191638,-57.179681)">
<stop offset="0" style="stop-color:rgb(9.019608%,56.470588%,8.627451%);stop-opacity:1;"/>
<stop offset="1" style="stop-color:rgb(54.117647%,88.235294%,16.862745%);stop-opacity:1;"/>
</linearGradient>
</defs>
<g id="surface1">
<path style=" stroke:none;fill-rule:nonzero;fill:url(#linear0);" d="M 386 21.121094 L 367.371094 21.121094 L 335.070312 48.988281 L 335.070312 30.984375 L 322.652344 41.699219 L 322.652344 73.488281 C 322.652344 74.382812 323.707031 74.878906 324.402344 74.296875 Z M 386 21.121094 "/>
<path style=" stroke:none;fill-rule:nonzero;fill:rgb(100%,100%,100%);fill-opacity:1;" d="M 217.589844 52.167969 L 217.769531 52.167969 C 221.019531 52.167969 223.664062 54.816406 223.664062 58.066406 C 223.664062 61.316406 221.019531 63.960938 217.769531 63.960938 L 217.589844 63.960938 C 214.339844 63.960938 211.695312 61.316406 211.695312 58.066406 C 211.695312 54.816406 214.316406 52.167969 217.589844 52.167969 Z M 217.589844 52.167969 "/>
<path style=" stroke:none;fill-rule:nonzero;fill:rgb(100%,100%,100%);fill-opacity:1;" d="M 212.679688 70.191406 L 222.679688 70.191406 L 222.679688 109.9375 L 212.679688 109.9375 Z M 212.679688 70.191406 "/>
<path style=" stroke:none;fill-rule:nonzero;fill:rgb(100%,100%,100%);fill-opacity:1;" d="M 295.710938 106.777344 C 295.6875 106.574219 295.460938 106.484375 295.304688 106.640625 C 294.230469 107.785156 292.726562 108.792969 290.734375 109.714844 C 288.535156 110.722656 286.070312 111.238281 283.359375 111.238281 C 281.722656 111.238281 280.085938 110.992188 278.492188 110.476562 C 276.878906 109.960938 275.421875 109.199219 274.078125 108.144531 C 272.753906 107.089844 271.679688 105.746094 270.851562 104.109375 C 270.019531 102.472656 269.617188 100.546875 269.617188 98.347656 C 269.617188 96.085938 270.042969 94.066406 270.894531 92.296875 C 271.746094 90.523438 272.933594 89.023438 274.460938 87.8125 C 275.984375 86.601562 277.820312 85.683594 279.972656 85.054688 C 282.125 84.425781 284.5 84.113281 287.101562 84.113281 C 287.886719 84.113281 288.761719 84.136719 289.722656 84.160156 C 290.6875 84.179688 291.605469 84.226562 292.527344 84.292969 C 293.535156 84.359375 294.589844 84.40625 295.664062 84.472656 L 295.664062 83.53125 C 295.664062 81.558594 294.878906 79.988281 293.289062 78.867188 C 291.695312 77.746094 289.632812 77.164062 287.101562 77.164062 C 284.277344 77.164062 282.011719 77.523438 280.308594 78.261719 C 278.605469 79.003906 277.125 79.785156 275.828125 80.640625 L 271.253906 73.847656 C 272.039062 73.285156 272.957031 72.703125 273.964844 72.097656 C 274.972656 71.492188 276.164062 70.976562 277.53125 70.484375 C 278.898438 70.011719 280.464844 69.609375 282.238281 69.296875 C 284.007812 68.980469 286.09375 68.824219 288.46875 68.824219 C 291 68.824219 293.3125 69.183594 295.371094 69.878906 C 297.433594 70.597656 299.207031 71.582031 300.664062 72.835938 C 302.140625 74.117188 303.261719 75.640625 304.046875 77.410156 C 304.832031 79.183594 305.234375 81.132812 305.234375 83.21875 L 305.234375 109.894531 L 295.910156 109.894531 Z M 295.6875 92.003906 C 294.679688 91.9375 293.667969 91.890625 292.726562 91.824219 C 291.941406 91.757812 291.113281 91.734375 290.21875 91.691406 C 289.34375 91.667969 288.582031 91.644531 287.976562 91.644531 C 284.746094 91.644531 282.484375 92.273438 281.183594 93.550781 C 279.882812 94.828125 279.234375 96.285156 279.234375 97.921875 C 279.234375 99.625 279.839844 100.949219 281.050781 101.914062 C 282.484375 103.054688 284.746094 103.527344 287.839844 103.300781 C 289.8125 102.945312 291.449219 102.226562 292.796875 101.148438 C 293.648438 100.476562 294.34375 99.671875 294.878906 98.773438 C 295.417969 97.878906 295.6875 96.914062 295.6875 95.882812 Z M 295.6875 92.003906 "/>
<path style=" stroke:none;fill-rule:nonzero;fill:rgb(100%,100%,100%);fill-opacity:1;" d="M 0 53.425781 L 10.757812 53.425781 L 38.152344 93.617188 L 38.152344 53.425781 L 48.574219 53.425781 L 48.574219 109.9375 L 38.0625 109.9375 L 10.421875 69.273438 L 10.421875 109.9375 L 0 109.9375 Z M 0 53.425781 "/>
<path style=" stroke:none;fill-rule:nonzero;fill:rgb(100%,100%,100%);fill-opacity:1;" d="M 94.214844 104.222656 C 94.035156 104.402344 93.585938 104.847656 92.824219 105.609375 C 92.0625 106.375 90.964844 107.179688 89.507812 108.03125 C 88.070312 108.882812 86.234375 109.644531 83.992188 110.320312 C 81.75 110.992188 79.082031 111.328125 75.988281 111.328125 C 72.828125 111.328125 69.9375 110.789062 67.335938 109.714844 C 64.738281 108.636719 62.519531 107.15625 60.679688 105.253906 C 58.839844 103.371094 57.429688 101.082031 56.441406 98.4375 C 55.457031 95.792969 54.964844 92.832031 54.964844 89.628906 C 54.964844 86.691406 55.457031 83.957031 56.441406 81.445312 C 57.429688 78.933594 58.820312 76.738281 60.589844 74.878906 C 62.359375 73.015625 64.492188 71.539062 66.957031 70.460938 C 69.421875 69.386719 72.132812 68.847656 75.136719 68.847656 C 78.746094 68.847656 81.816406 69.519531 84.328125 70.84375 C 86.839844 72.164062 88.855469 73.914062 90.378906 76.066406 C 91.90625 78.21875 93.003906 80.640625 93.699219 83.351562 C 94.371094 86.0625 94.707031 88.84375 94.707031 91.667969 L 94.707031 93.101562 L 65.027344 93.101562 C 65.027344 94.582031 65.34375 95.90625 66.015625 97.09375 C 66.664062 98.28125 67.515625 99.289062 68.546875 100.140625 C 69.601562 100.992188 70.789062 101.644531 72.113281 102.089844 C 73.433594 102.539062 74.757812 102.765625 76.058594 102.765625 C 77.984375 102.765625 79.664062 102.585938 81.101562 102.203125 C 82.535156 101.84375 83.769531 101.417969 84.800781 100.925781 C 85.808594 100.457031 86.660156 99.941406 87.308594 99.402344 C 87.960938 98.863281 88.453125 98.4375 88.789062 98.078125 Z M 84.460938 85.90625 C 84.460938 84.898438 84.261719 83.867188 83.878906 82.859375 C 83.476562 81.847656 82.894531 80.929688 82.132812 80.101562 C 81.371094 79.292969 80.382812 78.597656 79.195312 78.0625 C 78.007812 77.523438 76.660156 77.253906 75.117188 77.253906 C 73.480469 77.253906 72.023438 77.523438 70.746094 78.0625 C 69.464844 78.597656 68.414062 79.269531 67.5625 80.101562 C 66.710938 80.929688 66.058594 81.847656 65.609375 82.859375 C 65.164062 83.867188 64.9375 84.898438 64.9375 85.90625 Z M 84.460938 85.90625 "/>
<path style=" stroke:none;fill-rule:nonzero;fill:rgb(100%,100%,100%);fill-opacity:1;" d="M 100.960938 53.425781 L 110.957031 53.425781 L 110.957031 109.9375 L 100.960938 109.9375 Z M 100.960938 53.425781 "/>
<path style=" stroke:none;fill-rule:nonzero;fill:rgb(100%,100%,100%);fill-opacity:1;" d="M 117.210938 90.054688 C 117.210938 87.164062 117.726562 84.449219 118.78125 81.871094 C 119.835938 79.292969 121.292969 77.050781 123.152344 75.125 C 125.011719 73.195312 127.253906 71.671875 129.898438 70.550781 C 132.542969 69.429688 135.414062 68.847656 138.597656 68.847656 C 141.757812 68.847656 144.648438 69.40625 147.292969 70.550781 C 149.9375 71.695312 152.160156 73.21875 154.042969 75.125 C 155.902344 77.050781 157.359375 79.292969 158.414062 81.871094 C 159.464844 84.449219 159.980469 87.164062 159.980469 90.054688 C 159.980469 92.945312 159.464844 95.65625 158.414062 98.234375 C 157.359375 100.8125 155.902344 103.078125 154.042969 105.027344 C 152.179688 106.980469 149.9375 108.527344 147.292969 109.644531 C 144.671875 110.765625 141.757812 111.351562 138.597656 111.351562 C 135.4375 111.351562 132.542969 110.789062 129.898438 109.644531 C 127.277344 108.527344 125.035156 106.980469 123.152344 105.027344 C 121.292969 103.078125 119.835938 100.8125 118.78125 98.234375 C 117.75 95.65625 117.210938 92.921875 117.210938 90.054688 Z M 138.597656 102.675781 C 140.523438 102.675781 142.183594 102.292969 143.59375 101.53125 C 145.007812 100.769531 146.171875 99.761719 147.113281 98.527344 C 148.054688 97.292969 148.730469 95.925781 149.199219 94.449219 C 149.648438 92.96875 149.871094 91.511719 149.871094 90.03125 C 149.871094 88.621094 149.648438 87.164062 149.199219 85.660156 C 148.75 84.160156 148.054688 82.8125 147.113281 81.582031 C 146.171875 80.371094 145.007812 79.382812 143.59375 78.621094 C 142.183594 77.859375 140.523438 77.476562 138.597656 77.476562 C 136.667969 77.476562 135.011719 77.859375 133.597656 78.621094 C 132.1875 79.382812 131.019531 80.371094 130.078125 81.582031 C 129.136719 82.789062 128.464844 84.160156 127.996094 85.660156 C 127.546875 87.164062 127.320312 88.621094 127.320312 90.03125 C 127.320312 91.511719 127.546875 92.96875 127.996094 94.449219 C 128.441406 95.925781 129.136719 97.273438 130.078125 98.527344 C 131.019531 99.761719 132.1875 100.769531 133.597656 101.53125 C 134.988281 102.292969 136.667969 102.675781 138.597656 102.675781 Z M 138.597656 102.675781 "/>
<path style=" stroke:none;fill-rule:nonzero;fill:rgb(100%,100%,100%);fill-opacity:1;" d="M 173.273438 116.417969 C 174.867188 117.492188 176.570312 118.277344 178.40625 118.746094 C 180.246094 119.21875 182.398438 119.464844 184.886719 119.464844 C 187.484375 119.464844 189.660156 118.679688 191.410156 117.089844 C 193.15625 115.496094 194.03125 113.300781 194.03125 110.476562 L 194.03125 106.148438 C 192.664062 107.292969 191.183594 108.1875 189.570312 108.90625 C 187.957031 109.625 185.828125 109.960938 183.160156 109.960938 C 180.269531 109.960938 177.710938 109.488281 175.492188 108.527344 C 173.25 107.5625 171.347656 106.214844 169.777344 104.492188 C 168.1875 102.765625 166.996094 100.722656 166.167969 98.394531 C 165.339844 96.039062 164.933594 93.460938 164.933594 90.636719 C 164.933594 87.699219 165.449219 84.921875 166.503906 82.320312 C 167.558594 79.71875 169.039062 77.457031 170.988281 75.527344 C 172.9375 73.601562 175.292969 72.097656 178.070312 71 C 180.851562 69.902344 183.945312 69.339844 187.394531 69.339844 C 190.847656 69.339844 194.03125 69.632812 196.921875 70.191406 C 199.835938 70.753906 202.191406 71.359375 204.007812 71.964844 L 204.007812 110.632812 C 204.007812 113.414062 203.535156 115.855469 202.570312 118.007812 C 201.609375 120.160156 200.285156 121.953125 198.582031 123.433594 C 196.878906 124.910156 194.882812 126.011719 192.550781 126.773438 C 190.242188 127.535156 187.710938 127.914062 184.996094 127.914062 C 182.914062 127.914062 181.050781 127.828125 179.4375 127.625 C 177.824219 127.421875 176.390625 127.152344 175.113281 126.816406 C 173.835938 126.480469 172.691406 126.054688 171.636719 125.539062 C 170.585938 125.023438 169.621094 124.441406 168.703125 123.769531 Z M 194.03125 78.867188 C 193.246094 78.578125 192.417969 78.375 191.566406 78.242188 C 190.714844 78.105469 189.390625 78.015625 187.574219 78.015625 C 185.535156 78.015625 183.765625 78.351562 182.242188 79.023438 C 180.714844 79.699219 179.417969 80.617188 178.339844 81.738281 C 177.265625 82.859375 176.457031 84.179688 175.917969 85.683594 C 175.382812 87.183594 175.113281 88.753906 175.113281 90.390625 C 175.113281 93.4375 175.875 96.015625 177.398438 98.101562 C 178.921875 100.1875 181.386719 101.238281 184.773438 101.238281 C 187.820312 101.238281 190.128906 100.589844 191.675781 99.289062 C 193.222656 97.988281 194.007812 95.925781 194.007812 93.101562 Z M 194.03125 78.867188 "/>
<path style=" stroke:none;fill-rule:nonzero;fill:rgb(100%,100%,100%);fill-opacity:1;" d="M 265.804688 104.714844 C 263.945312 106.6875 261.726562 108.277344 259.195312 109.46875 C 256.660156 110.65625 253.679688 111.238281 250.292969 111.238281 C 246.910156 111.238281 243.882812 110.722656 241.214844 109.714844 C 238.550781 108.703125 236.328125 107.246094 234.515625 105.386719 C 232.699219 103.527344 231.308594 101.285156 230.367188 98.683594 C 229.402344 96.085938 228.933594 93.191406 228.933594 90.03125 C 228.933594 87.140625 229.449219 84.425781 230.5 81.847656 C 231.554688 79.269531 233.011719 77.03125 234.871094 75.101562 C 236.734375 73.175781 238.976562 71.648438 241.621094 70.527344 C 244.242188 69.40625 247.132812 68.824219 250.316406 68.824219 C 253.546875 68.824219 256.480469 69.40625 259.125 70.574219 C 261.773438 71.738281 264.035156 73.308594 265.917969 75.28125 L 259.550781 81.714844 C 258.433594 80.414062 257.085938 79.40625 255.5625 78.667969 C 254.039062 77.925781 252.289062 77.566406 250.292969 77.566406 C 248.367188 77.566406 246.707031 77.925781 245.296875 78.621094 C 243.882812 79.339844 242.71875 80.234375 241.777344 81.378906 C 240.835938 82.5 240.164062 83.84375 239.691406 85.367188 C 239.242188 86.894531 239.019531 88.441406 239.019531 90.03125 C 239.019531 91.554688 239.242188 93.058594 239.691406 94.515625 C 240.140625 95.996094 240.835938 97.316406 241.777344 98.503906 C 242.71875 99.691406 243.882812 100.65625 245.296875 101.398438 C 246.707031 102.136719 248.367188 102.496094 250.292969 102.496094 C 252.265625 102.496094 254.082031 102.113281 255.71875 101.351562 C 257.355469 100.589844 258.746094 99.558594 259.867188 98.257812 Z M 265.804688 104.714844 "/>
<path style=" stroke:none;fill-rule:nonzero;fill:rgb(100%,100%,100%);fill-opacity:1;" d="M 325.074219 106.867188 C 324.671875 106.214844 324.3125 105.746094 324.042969 105.476562 C 323.886719 105.320312 323.683594 105.207031 323.4375 105.09375 C 324.042969 105.050781 324.535156 104.847656 324.894531 104.46875 C 325.253906 104.085938 325.433594 103.636719 325.433594 103.121094 C 325.433594 102.765625 325.320312 102.429688 325.117188 102.089844 C 324.894531 101.777344 324.601562 101.53125 324.246094 101.417969 C 323.863281 101.285156 323.28125 101.21875 322.453125 101.21875 L 320.277344 101.21875 C 320.140625 101.21875 320.050781 101.328125 320.050781 101.441406 L 320.050781 108.210938 L 321.171875 108.210938 L 321.171875 105.230469 L 321.847656 105.230469 C 322.25 105.230469 322.539062 105.320312 322.742188 105.476562 C 323.035156 105.699219 323.4375 106.238281 323.929688 107.113281 L 324.558594 108.210938 L 325.949219 108.210938 Z M 322.539062 104.289062 L 321.171875 104.289062 L 321.171875 102.160156 L 322.453125 102.160156 C 323.011719 102.160156 323.394531 102.203125 323.59375 102.292969 C 323.796875 102.359375 323.953125 102.496094 324.066406 102.652344 C 324.175781 102.808594 324.246094 103.011719 324.246094 103.210938 C 324.246094 103.550781 324.132812 103.796875 323.886719 103.996094 C 323.640625 104.175781 323.191406 104.289062 322.539062 104.289062 Z M 322.539062 104.289062 "/>
<path style=" stroke:none;fill-rule:nonzero;fill:rgb(100%,100%,100%);fill-opacity:1;" d="M 322.652344 99.335938 C 325.613281 99.335938 328.03125 101.753906 328.03125 104.714844 C 328.03125 107.671875 325.613281 110.09375 322.652344 110.09375 C 319.695312 110.09375 317.273438 107.671875 317.273438 104.714844 C 317.273438 101.753906 319.695312 99.335938 322.652344 99.335938 M 322.652344 98.214844 C 319.042969 98.214844 316.128906 101.128906 316.128906 104.738281 C 316.128906 108.347656 319.042969 111.261719 322.652344 111.261719 C 326.261719 111.261719 329.175781 108.347656 329.175781 104.738281 C 329.175781 101.128906 326.261719 98.214844 322.652344 98.214844 Z M 322.652344 98.214844 "/>
<path style=" stroke:none;fill-rule:nonzero;fill:url(#linear1);" d="M 286.628906 53.425781 L 305.257812 53.425781 L 337.558594 25.5625 L 337.558594 43.5625 L 349.976562 32.847656 L 349.976562 1.058594 C 349.976562 0.164062 348.925781 -0.332031 348.230469 0.253906 Z M 286.628906 53.425781 "/>
</g>
</svg>
